<svg width="22" height="806" viewBox="0 0 22 806" fill="none" xmlns="http://www.w3.org/2000/svg">
<g filter="url(#filter0_d_15345_3)">
<path d="M16.0337 801.91L4.83369 801.91L4.83369 794.678L6.48169 794.678L6.48169 799.862L9.61769 799.862L9.61769 795.67L11.2337 795.67L11.2337 799.862L16.0337 799.862L16.0337 801.91ZM16.2257 788.441C16.2257 789.039 16.1137 789.561 15.8897 790.009C15.6657 790.457 15.351 790.82 14.9457 791.097L16.0337 791.321L16.0337 793.145L4.51369 793.145L4.51369 791.097L9.23369 791.097C8.88169 790.841 8.57236 790.505 8.30569 790.089C8.03902 789.663 7.90569 789.113 7.90569 788.441C7.90569 787.695 8.08702 787.028 8.44969 786.441C8.81236 785.855 9.30836 785.391 9.93769 785.049C10.567 784.708 11.2817 784.537 12.0817 784.537C12.8817 784.537 13.5964 784.708 14.2257 785.049C14.8444 785.391 15.335 785.855 15.6977 786.441C16.0497 787.028 16.2257 787.695 16.2257 788.441ZM14.4337 788.873C14.4337 788.223 14.215 787.684 13.7777 787.257C13.3404 786.831 12.775 786.617 12.0817 786.617C11.3884 786.617 10.8177 786.831 10.3697 787.257C9.92169 787.684 9.69769 788.223 9.69769 788.873C9.69769 789.535 9.92169 790.079 10.3697 790.505C10.807 790.921 11.3724 791.129 12.0657 791.129C12.759 791.129 13.3297 790.921 13.7777 790.505C14.215 790.079 14.4337 789.535 14.4337 788.873ZM16.0337 740.722L4.83369 740.722L4.83369 738.674L16.0337 738.674L16.0337 740.722ZM16.0337 736.552L8.09769 736.552L8.09769 734.744L9.44169 734.584C8.97235 734.338 8.59902 733.986 8.32169 733.528C8.04435 733.058 7.90569 732.509 7.90569 731.88C7.90569 730.898 8.21502 730.136 8.83369 729.592C9.45235 729.048 10.359 728.776 11.5537 728.776L16.0337 728.776L16.0337 730.824L11.7457 730.824C11.063 730.824 10.5404 730.962 10.1777 731.24C9.81502 731.517 9.63369 731.949 9.63369 732.536C9.63369 733.112 9.83635 733.586 10.2417 733.96C10.647 734.322 11.2124 734.504 11.9377 734.504L16.0337 734.504L16.0337 736.552ZM16.0337 689.849L6.48169 689.849L6.48169 693.113L4.83369 693.113L4.83369 684.521L6.48169 684.521L6.48169 687.801L16.0337 687.801L16.0337 689.849ZM16.0337 682.406L8.09769 684.726L8.09769 682.694L13.8097 681.318L8.09769 679.718L8.09769 677.446L13.8097 675.846L8.09769 674.454L8.09769 672.422L16.0337 674.758L16.0337 676.886L10.0977 678.582L16.0337 680.278L16.0337 682.406Z" fill="white"/>
</g>
<rect width="2.00104" height="296" transform="matrix(1 0 0 -1 6.03687 396.001)" fill="white"/>
<rect width="2.00104" height="296" transform="matrix(1 0 0 -1 6.03687 396.001)" fill="white"/>
<g filter="url(#filter1_d_15345_3)">
<rect width="4.00208" height="100" transform="matrix(1 0 0 -1 5.03638 100.001)" fill="#DD2242"/>
</g>
<defs>
<filter id="filter0_d_15345_3" x="0.513672" y="668.422" width="19.7119" height="137.488" filterUnits="userSpaceOnUse" color-interpolation-filters="sRGB">
<feFlood flood-opacity="0" result="BackgroundImageFix"/>
<feColorMatrix in="SourceAlpha" type="matrix" values="0 0 0 0 0 0 0 0 0 0 0 0 0 0 0 0 0 0 127 0" result="hardAlpha"/>
<feOffset/>
<feGaussianBlur stdDeviation="2"/>
<feColorMatrix type="matrix" values="0 0 0 0 0 0 0 0 0 0 0 0 0 0 0 0 0 0 0.1 0"/>
<feBlend mode="normal" in2="BackgroundImageFix" result="effect1_dropShadow_15345_3"/>
<feBlend mode="normal" in="SourceGraphic" in2="effect1_dropShadow_15345_3" result="shape"/>
</filter>
<filter id="filter1_d_15345_3" x="1.03638" y="0.000671387" width="12.0022" height="108" filterUnits="userSpaceOnUse" color-interpolation-filters="sRGB">
<feFlood flood-opacity="0" result="BackgroundImageFix"/>
<feColorMatrix in="SourceAlpha" type="matrix" values="0 0 0 0 0 0 0 0 0 0 0 0 0 0 0 0 0 0 127 0" result="hardAlpha"/>
<feOffset dy="4"/>
<feGaussianBlur stdDeviation="2"/>
<feColorMatrix type="matrix" values="0 0 0 0 0 0 0 0 0 0 0 0 0 0 0 0 0 0 0.45 0"/>
<feBlend mode="normal" in2="BackgroundImageFix" result="effect1_dropShadow_15345_3"/>
<feBlend mode="normal" in="SourceGraphic" in2="effect1_dropShadow_15345_3" result="shape"/>
</filter>
</defs>
</svg>
