<svg aria-hidden="true" style="position: absolute; width: 0; height: 0; overflow: hidden;" version="1.1" xmlns="http://www.w3.org/2000/svg" xmlns:xlink="http://www.w3.org/1999/xlink">
<defs>
<symbol id="icon-arrow-up" viewBox="0 0 57 32">
<path d="M32.141 1.158l23.772 23.773c1.544 1.545 1.544 4.049 0 5.593s-4.049 1.545-5.593 0l-21.625-21.625-21.943 21.942c-1.545 1.545-4.049 1.545-5.593 0s-1.545-4.049 0-5.593l23.772-23.771c0.787-0.788 1.824-1.173 2.855-1.158 1.442-0.618 3.178-0.338 4.356 0.839z"></path>
</symbol>
<symbol id="icon-google" viewBox="0 0 32 32">
<path d="M31.714 12.807h-15.376c0 1.6 0 4.798-0.009 6.395h8.91c-0.343 1.6-1.554 3.84-3.264 4.965 0 0 0 0.011-0.005 0.009-2.274 1.502-5.275 1.842-7.504 1.394-3.458-0.719-6.215-3.165-7.359-6.377l-0.021-0.069c0.007-0.005 0.011-0.048 0.016-0.053-0.702-1.995-0.702-4.667 0-6.265 0.905-2.939 3.753-5.623 7.25-6.354 2.811-0.597 5.989 0.048 8.32 2.233 0.311-0.304 4.297-4.197 4.597-4.512-7.977-7.223-20.745-4.683-25.525 4.645l-0.009 0.018c-1.093 2.079-1.734 4.542-1.734 7.155 0 2.625 0.647 5.099 1.791 7.271l-0.041-0.085-0.016 0.014c2.138 4.058 5.825 7.058 10.254 8.237l0.114 0.026c4.816 1.264 10.949 0.4 15.056-3.314l0.005 0.005c3.479-3.131 5.646-8.473 4.551-15.337z"></path>
</symbol>
<symbol id="icon-linkedin" viewBox="0 0 32 32">
<path d="M32 32h-6.154v-11.206c0-3.074-1.304-4.79-3.64-4.79-2.542 0-4.052 1.788-4.052 4.79v11.206h-6.154v-20.816h6.154v2.34s1.93-3.524 6.28-3.524c4.356 0 7.566 2.764 7.566 8.482v13.518zM3 6c-1.657 0-3-1.343-3-3s1.343-3 3-3v0c1.657 0 3 1.343 3 3s-1.343 3-3 3v0zM0 32h6v-20h-6v20z"></path>
</symbol>
<symbol id="icon-facebook" viewBox="0 0 17 32">
<path d="M11.642 32v-14.4h4.663l0.762-6.4h-5.425v-3.117c0-1.647 0.045-3.283 2.502-3.283h2.487v-4.576c0-0.068-2.138-0.224-4.301-0.224-4.514 0-7.341 2.652-7.341 7.52v3.68h-4.99v6.4h4.99v14.4h6.652z"></path>
</symbol>
<symbol id="icon-playbtn" viewBox="0 0 27 32">
<path fill="#fff" style="fill: var(--color1, #fff)" d="M26.248 16.564l-24.962 13.873c-0.288 0.163-0.539 0.182-0.753 0.057-0.2-0.126-0.3-0.352-0.3-0.677v-27.67c0-0.325 0.101-0.551 0.3-0.677 0.214-0.123 0.465-0.106 0.753 0.057l24.962 13.871c0.288 0.163 0.433 0.359 0.433 0.583 0 0.226-0.145 0.421-0.433 0.583z"></path>
</symbol>
<symbol id="icon-swipe" viewBox="0 0 330 32">
<path fill="#85a3b2" style="fill: var(--color2, #85a3b2)" d="M160 16c0 8.837-7.163 16-16 16s-16-7.163-16-16c0-8.837 7.163-16 16-16s16 7.163 16 16z"></path>
<path fill="#85a3b2" style="fill: var(--color2, #85a3b2)" d="M90.947 16c0 8.837-7.163 16-16 16s-16-7.163-16-16c0-8.837 7.163-16 16-16s16 7.163 16 16z"></path>
<path fill="#85a3b2" style="fill: var(--color2, #85a3b2)" d="M32 16c0 8.837-7.163 16-16 16s-16-7.163-16-16c0-8.837 7.163-16 16-16s16 7.163 16 16z"></path>
<path fill="#85a3b2" style="fill: var(--color2, #85a3b2)" d="M330.105 16c0 8.837-7.163 16-16 16s-16-7.163-16-16c0-8.837 7.163-16 16-16s16 7.163 16 16z"></path>
<path fill="#dd2242" style="fill: var(--color3, #dd2242)" d="M201.263 0h52.211c8.837 0 16 7.163 16 16s-7.163 16-16 16h-52.211c-8.837 0-16-7.163-16-16s7.163-16 16-16z"></path>
</symbol>
<symbol id="icon-ar-left" viewBox="0 0 20 32">
<path d="M8.097 16.187l10 9.999c0.609 0.604 0.986 1.442 0.986 2.367 0 1.841-1.492 3.333-3.333 3.333-0.926 0-1.763-0.377-2.367-0.987l-12.407-12.406c-0.603-0.603-0.976-1.437-0.976-2.357 0-1.165 0.597-2.19 1.502-2.786l0.013-0.008 12.364-12.367c0.603-0.603 1.437-0.976 2.357-0.976 1.841 0 3.334 1.493 3.334 3.334 0 0.921-0.373 1.754-0.976 2.357l-10.496 10.495z"></path>
</symbol>
<symbol id="icon-ar-right" viewBox="0 0 20 32">
<path d="M11.472 16.187l-10 9.999c-0.609 0.604-0.986 1.442-0.986 2.367 0 1.841 1.492 3.333 3.333 3.333 0.926 0 1.763-0.377 2.367-0.987l12.407-12.407c0.604-0.603 0.977-1.437 0.977-2.358 0-1.164-0.597-2.189-1.502-2.785l-0.013-0.008-12.365-12.365c-0.603-0.603-1.437-0.976-2.357-0.976-1.841 0-3.334 1.493-3.334 3.334 0 0.921 0.373 1.754 0.976 2.357l10.496 10.495z"></path>
</symbol>
<symbol id="icon-menu" viewBox="0 0 51 32">
<path d="M2.44 32h48.027v-5.333h-48.027v5.333zM2.44 18.667h48.027v-5.333h-48.027v5.333zM2.44 0v5.333h48.027v-5.333h-48.027z"></path>
</symbol>
<symbol id="icon-search" viewBox="0 0 34 32">
<path d="M23.787 19.556h-1.404l-0.498-0.48c1.734-2.003 2.791-4.634 2.791-7.512 0-0.003 0-0.006 0-0.009v0c0-6.382-5.174-11.556-11.556-11.556s-11.556 5.174-11.556 11.556c0 6.382 5.174 11.556 11.556 11.556v0c2.862 0 5.493-1.049 7.52-2.791l0.48 0.498v1.404l8.889 8.871 2.649-2.649-8.871-8.889zM13.12 19.556c-4.427 0-8-3.573-8-8s3.573-8 8-8 8 3.573 8 8-3.573 8-8 8z"></path>
</symbol>
<symbol id="icon-rose" viewBox="0 0 16 32">
<path d="M16.185 10.001v-5c0-0.552-0.448-0.999-1.001-0.999h-1.001v-3.001c0-0.552-0.448-1-1.001-1-1.417 0-3.585-0.109-6.132 1.416-1.582-0.471-2.702-0.416-3.873-0.416-0.552 0-1.001 0.447-1.001 0.999v2h-1c-0.552 0-1 0.448-1 1v5c0 4.072 3.061 7.444 7.003 7.937v13.061c0 0.553 0.448 1 1.001 1s1.001-0.448 1.001-1v0-3.498h1.501c3.034 0 5.503-2.467 5.503-5.5v-1.5c0-0.552-0.448-0.999-1.001-0.999h-2.501c-0.002 0-0.004 0-0.005 0-1.333 0-2.555 0.476-3.505 1.268l0.009-0.007v-2.824c3.937-0.487 7.003-3.841 7.003-7.937zM14.184 10.001c-0.002 1.785-0.785 3.387-2.025 4.484l-0.006 0.006c0.020-0.161 0.031-0.323 0.031-0.49 0-2.532-0.947-4.846-2.505-6.61 1.26-0.869 2.82-1.388 4.501-1.388 0.002 0 0.004 0 0.005 0h-0v3.999zM12.183 2.001v2.202c-0.252 0.051-0.437 0.095-0.62 0.145l0.070-0.016c-0.634-0.709-1.357-1.319-2.156-1.82l-0.042-0.024c0.816-0.307 1.759-0.485 2.743-0.485 0.002 0 0.004 0 0.005 0h-0zM4.18 3.002c1.988 0 3.918 0.725 5.419 2.111-0.543 0.283-1.008 0.579-1.445 0.91l0.025-0.018c-1.125-0.855-2.471-1.483-3.934-1.79l-0.065-0.011v-1.202zM2.178 10.001v-3.999c4.413 0 8.004 3.589 8.004 7.999-0.002 1.104-0.898 1.999-2.002 1.999-0.018 0-0.036-0-0.054-0.001l0.003 0c-3.515-0.086-5.951-2.877-5.951-5.998zM12.683 21.501h1.501v0.5c-0.003 1.933-1.569 3.499-3.502 3.5h-1.5v-0.5c0.003-1.933 1.569-3.499 3.502-3.5h0z"></path>
</symbol>
</defs>
</svg>